<svg viewBox="0 0 680 360" xmlns="http://www.w3.org/2000/svg" style="width:100%;height:auto;">
<defs>
<marker id="ar" viewBox="0 0 10 10" refX="8" refY="5" markerWidth="5" markerHeight="5" orient="auto-start-reverse">
<path d="M2 1L8 5L2 9" fill="none" stroke="#c9a14a" stroke-width="1.5"/>
</marker>
</defs>
<text x="100" y="35" text-anchor="middle" font-family="sans-serif" font-size="14" font-weight="600" fill="#6b665e">入力層</text>
<text x="340" y="35" text-anchor="middle" font-family="sans-serif" font-size="14" font-weight="600" fill="#6b665e">隠れ層（中間層）</text>
<text x="590" y="35" text-anchor="middle" font-family="sans-serif" font-size="14" font-weight="600" fill="#6b665e">出力層</text>
<line x1="100" y1="100" x2="250" y2="80" stroke="#e6e0d6" stroke-width="1"/>
<line x1="100" y1="100" x2="250" y2="160" stroke="#e6e0d6" stroke-width="1"/>
<line x1="100" y1="100" x2="250" y2="240" stroke="#e6e0d6" stroke-width="1"/>
<line x1="100" y1="100" x2="250" y2="320" stroke="#e6e0d6" stroke-width="1"/>
<line x1="100" y1="180" x2="250" y2="80" stroke="#e6e0d6" stroke-width="1"/>
<line x1="100" y1="180" x2="250" y2="160" stroke="#e6e0d6" stroke-width="1"/>
<line x1="100" y1="180" x2="250" y2="240" stroke="#e6e0d6" stroke-width="1"/>
<line x1="100" y1="180" x2="250" y2="320" stroke="#e6e0d6" stroke-width="1"/>
<line x1="100" y1="260" x2="250" y2="80" stroke="#e6e0d6" stroke-width="1"/>
<line x1="100" y1="260" x2="250" y2="160" stroke="#e6e0d6" stroke-width="1"/>
<line x1="100" y1="260" x2="250" y2="240" stroke="#e6e0d6" stroke-width="1"/>
<line x1="100" y1="260" x2="250" y2="320" stroke="#e6e0d6" stroke-width="1"/>
<line x1="250" y1="80" x2="430" y2="80" stroke="#e6e0d6" stroke-width="1"/>
<line x1="250" y1="80" x2="430" y2="160" stroke="#e6e0d6" stroke-width="1"/>
<line x1="250" y1="80" x2="430" y2="240" stroke="#e6e0d6" stroke-width="1"/>
<line x1="250" y1="80" x2="430" y2="320" stroke="#e6e0d6" stroke-width="1"/>
<line x1="250" y1="160" x2="430" y2="80" stroke="#e6e0d6" stroke-width="1"/>
<line x1="250" y1="160" x2="430" y2="160" stroke="#e6e0d6" stroke-width="1"/>
<line x1="250" y1="160" x2="430" y2="240" stroke="#e6e0d6" stroke-width="1"/>
<line x1="250" y1="160" x2="430" y2="320" stroke="#e6e0d6" stroke-width="1"/>
<line x1="250" y1="240" x2="430" y2="80" stroke="#e6e0d6" stroke-width="1"/>
<line x1="250" y1="240" x2="430" y2="160" stroke="#e6e0d6" stroke-width="1"/>
<line x1="250" y1="240" x2="430" y2="240" stroke="#e6e0d6" stroke-width="1"/>
<line x1="250" y1="240" x2="430" y2="320" stroke="#e6e0d6" stroke-width="1"/>
<line x1="250" y1="320" x2="430" y2="80" stroke="#e6e0d6" stroke-width="1"/>
<line x1="250" y1="320" x2="430" y2="160" stroke="#e6e0d6" stroke-width="1"/>
<line x1="250" y1="320" x2="430" y2="240" stroke="#e6e0d6" stroke-width="1"/>
<line x1="250" y1="320" x2="430" y2="320" stroke="#e6e0d6" stroke-width="1"/>
<line x1="430" y1="80" x2="590" y2="160" stroke="#e6e0d6" stroke-width="1"/>
<line x1="430" y1="80" x2="590" y2="240" stroke="#e6e0d6" stroke-width="1"/>
<line x1="430" y1="160" x2="590" y2="160" stroke="#e6e0d6" stroke-width="1"/>
<line x1="430" y1="160" x2="590" y2="240" stroke="#e6e0d6" stroke-width="1"/>
<line x1="430" y1="240" x2="590" y2="160" stroke="#e6e0d6" stroke-width="1"/>
<line x1="430" y1="240" x2="590" y2="240" stroke="#e6e0d6" stroke-width="1"/>
<line x1="430" y1="320" x2="590" y2="160" stroke="#e6e0d6" stroke-width="1"/>
<line x1="430" y1="320" x2="590" y2="240" stroke="#e6e0d6" stroke-width="1"/>
<circle cx="100" cy="100" r="18" fill="#7a9bc4"/>
<circle cx="100" cy="180" r="18" fill="#7a9bc4"/>
<circle cx="100" cy="260" r="18" fill="#7a9bc4"/>
<circle cx="250" cy="80" r="18" fill="#9a8fc4"/>
<circle cx="250" cy="160" r="18" fill="#9a8fc4"/>
<circle cx="250" cy="240" r="18" fill="#9a8fc4"/>
<circle cx="250" cy="320" r="18" fill="#9a8fc4"/>
<circle cx="430" cy="80" r="18" fill="#9a8fc4"/>
<circle cx="430" cy="160" r="18" fill="#9a8fc4"/>
<circle cx="430" cy="240" r="18" fill="#9a8fc4"/>
<circle cx="430" cy="320" r="18" fill="#9a8fc4"/>
<circle cx="590" cy="160" r="18" fill="#6bae9a"/>
<circle cx="590" cy="240" r="18" fill="#6bae9a"/>
</svg>